# xmcd
#
# Track frame offsets:
#	150
#	9502
#	21599
#	34412
#	46950
#	57221
#	70421
#	84317
#	95839
#	108285
#	121333
#	134650
#	147256
#	159336
#	172355
#	184714
#	193532
#	204525
#	217049
#	229942
#	241871
#
# Disc length: 3397 seconds
#
# Revision: 1
# Processed by: cddbd v1.5.1PL2 Copyright (c) Steve Scherf et al.
# Submitted via: audiograbber 1.83.01
#
DISCID=380d4315
DTITLE=Various Artist - (IEDS10001-4) Cradle Of Country and Western Music
DYEAR=1955
DGENRE=Country
TTITLE0=Tennessee Ernie Ford - Kissin´ Bug Boogie
TTITLE1=Hank Thompson - Wild Side Of Life
TTITLE2=Hank Penny - Time Will Tell
TTITLE3=Lone Star Playboys - Banjo Boogie
TTITLE4=Gene Autry - El Rancho Grande
TTITLE5=Hank Penny - Penny Blows His Top
TTITLE6=Don McCord - Can´t Live Without You
TTITLE7=Hank Penny - Talin´ ´Bout You
TTITLE8=Richard Prine - Adam´s Apple
TTITLE9=Cliffie Stone - Peppin´ Through The Keyhole
TTITLE10=Jimmy Wakely - Mine All Mine
TTITLE11=Little Jimmy Dickens - Take An Old Cold ´Tater
TTITLE12=Bill Strength - Black Coffee Blues
TTITLE13=Ocie Stockard - Nobody Cares
TTITLE14=Lefty Frizzell - I Love You A Thousand Way
TTITLE15=Johnny Bond - Ridin´ Down To Santa Fe
TTITLE16=Jerry Irby - Too Many Women
TTITLE17=Pee Wee Hughes - Country Boy Blues
TTITLE18=Ocie Stockard - Twin Guitar Polka
TTITLE19=Johnny Bond - Sick, Sober And Sorry
TTITLE20=Wesley Tuttle - With Tears In My Eyes
EXTD=
EXTT0=
EXTT1=
EXTT2=
EXTT3=
EXTT4=
EXTT5=
EXTT6=
EXTT7=
EXTT8=
EXTT9=
EXTT10=
EXTT11=
EXTT12=
EXTT13=
EXTT14=
EXTT15=
EXTT16=
EXTT17=
EXTT18=
EXTT19=
EXTT20=
PLAYORDER=
